<svg width="74" height="73" viewBox="0 0 74 73" fill="none" xmlns="http://www.w3.org/2000/svg">
<g clip-path="url(#clip0_685_14)">
<path d="M57.2724 72.9818H17.6372C8.45921 72.9818 0.963867 65.4695 0.963867 56.3085V16.6733C0.963867 7.51233 8.4762 0 17.6372 0H57.2724C66.4504 0 73.9457 7.51233 73.9457 16.6733V56.3085C73.9457 65.4865 66.4504 72.9818 57.2724 72.9818Z" fill="white"/>
<path d="M54.8089 14.6338H19.8646C14.9187 14.6338 10.8906 18.6789 10.8906 23.6078V45.329C10.8906 50.2749 14.9357 54.303 19.8646 54.303H32.2039L34.3284 57.9742L36.419 61.5944C36.7929 62.2572 37.7447 62.2572 38.1356 61.5944L40.2261 57.9742L42.3507 54.303H54.8259C59.7718 54.303 63.7999 50.2579 63.7999 45.329V23.6248C63.7999 18.6789 59.7548 14.6338 54.8089 14.6338Z" fill="url(#paint0_linear_685_14)"/>
<path d="M39.7836 30.5425C37.0812 30.5425 34.8887 32.701 34.8887 35.3694C34.8887 38.0378 37.0812 40.1963 39.7836 40.1963C42.486 40.1963 44.6785 38.0378 44.6785 35.3694C44.6785 32.701 42.503 30.5425 39.7836 30.5425ZM39.7836 37.6809C38.4919 37.6809 37.4381 36.6441 37.4381 35.3694C37.4381 34.0947 38.4919 33.0579 39.7836 33.0579C41.0753 33.0579 42.1291 34.0947 42.1291 35.3694C42.1291 36.6441 41.0923 37.6809 39.7836 37.6809Z" fill="white"/>
<path d="M24.3001 30.5427C23.2464 30.5427 22.2606 30.9506 21.4958 31.6474V27.6533H18.7764V39.9756H21.4958V39.1088C22.2606 39.7887 23.2294 40.2136 24.3001 40.2136C26.7306 40.2136 28.7022 38.055 28.7022 35.3866C28.7022 32.7182 26.7476 30.5427 24.3001 30.5427ZM23.7563 37.7831C22.7535 37.7831 21.8867 37.1882 21.5128 36.3214C21.3938 36.0325 21.3088 35.7096 21.3088 35.3696C21.3088 35.0297 21.3768 34.7068 21.5128 34.4178C21.8867 33.551 22.7535 32.9562 23.7563 32.9562C25.116 32.9562 26.2037 34.0269 26.2037 35.3696C26.2037 36.7123 25.116 37.7831 23.7563 37.7831Z" fill="white"/>
<path d="M53.1597 30.7465V31.5114C52.3949 30.9165 51.4431 30.5596 50.4233 30.5596C47.9249 30.5596 45.9023 32.6501 45.9023 35.2165C45.9023 37.783 47.9249 39.8735 50.4233 39.8735C51.4601 39.8735 52.4119 39.5166 53.1597 38.9217V40.2134C53.1597 40.2134 52.8878 41.4881 50.9842 41.4881V43.8846C50.9842 43.8846 53.0408 44.1226 54.8764 42.287C54.8764 42.287 55.7262 41.3862 55.9131 40.1964V30.7465H53.1597V30.7465ZM50.9332 37.579C49.5565 37.579 48.4518 36.5083 48.4518 35.1995C48.4518 33.8908 49.5735 32.8201 50.9332 32.8201C51.902 32.8201 52.7518 33.3639 53.1597 34.1458C53.3297 34.4687 53.4147 34.8256 53.4147 35.1995C53.4147 35.5735 53.3127 35.9474 53.1597 36.2533C52.7518 37.0521 51.902 37.579 50.9332 37.579Z" fill="white"/>
<path d="M29.0078 27.4154V29.8799C29.0078 29.8799 30.2655 30.0498 30.5035 31.2736V39.9756H33.3079V31.2736V31.2056C33.1379 29.9818 32.4071 29.064 32.4071 29.064C30.8094 27.1775 29.0078 27.4154 29.0078 27.4154Z" fill="white"/>
</g>
<defs>
<linearGradient id="paint0_linear_685_14" x1="37.3421" y1="62.088" x2="37.3421" y2="14.6386" gradientUnits="userSpaceOnUse">
<stop stop-color="#00D44D"/>
<stop offset="1" stop-color="#00E56D"/>
</linearGradient>
<clipPath id="clip0_685_14">
<rect width="72.9818" height="72.9818" fill="white" transform="translate(0.963867)"/>
</clipPath>
</defs>
</svg>
