<svg width="19" height="20" viewBox="0 0 19 20" fill="none" xmlns="http://www.w3.org/2000/svg">
<path fill-rule="evenodd" clip-rule="evenodd" d="M8.12243 3.20806C8.56937 2.76112 9.17555 2.51004 9.80762 2.51004C10.4397 2.51004 11.0459 2.76112 11.4928 3.20806C11.7752 3.49046 11.9794 3.83642 12.0915 4.21233H7.52375C7.63583 3.83642 7.84004 3.49046 8.12243 3.20806ZM5.43433 4.21233C5.57783 3.29065 6.01018 2.43142 6.67799 1.76362C7.50802 0.933591 8.63379 0.467285 9.80762 0.467285C10.9815 0.467285 12.1072 0.933591 12.9373 1.76362C13.6051 2.43142 14.0375 3.29065 14.1809 4.21233H17.9786C18.5427 4.21233 19 4.66962 19 5.23371C19 5.79781 18.5427 6.25508 17.9786 6.25508H16.6168V17.4902C16.6168 18.032 16.4016 18.5516 16.0185 18.9347C15.6355 19.3178 15.1158 19.533 14.574 19.533H5.0412C4.49942 19.533 3.97984 19.3178 3.59675 18.9347C3.21367 18.5516 2.99845 18.032 2.99845 17.4902V6.25508H1.63661C1.07252 6.25508 0.615234 5.79781 0.615234 5.23371C0.615234 4.66962 1.07252 4.21233 1.63661 4.21233H5.43433ZM7.08395 8.47005C7.55403 8.47005 7.9351 8.85113 7.9351 9.3212V14.7706C7.9351 15.2406 7.55403 15.6218 7.08395 15.6218C6.61387 15.6218 6.2328 15.2406 6.2328 14.7706V9.3212C6.2328 8.85113 6.61387 8.47005 7.08395 8.47005ZM13.3824 9.3212C13.3824 8.85113 13.0014 8.47005 12.5313 8.47005C12.0612 8.47005 11.6801 8.85113 11.6801 9.3212V14.7706C11.6801 15.2406 12.0612 15.6218 12.5313 15.6218C13.0014 15.6218 13.3824 15.2406 13.3824 14.7706V9.3212Z" fill="#868686"/>
</svg>
