<svg width="90" height="90" viewBox="0 0 90 90" fill="none" xmlns="http://www.w3.org/2000/svg">
<g clip-path="url(#clip0_990_29)">
<rect width="90" height="90" rx="45" fill="#EDEDED" fill-opacity="0.66"/>
<path d="M56.788 26.808C53.7949 23.5764 49.6144 21.7969 45.0001 21.7969C40.3613 21.7969 36.1669 23.5657 33.1876 26.7772C30.1761 30.0241 28.7087 34.4369 29.0533 39.2019C29.7362 48.6026 36.8898 56.25 45.0001 56.25C53.1105 56.25 60.2518 48.6042 60.9455 39.2049C61.2946 34.483 59.8181 30.0795 56.788 26.808Z" fill="#D7D7D7"/>
<path d="M72.0712 90.7031H17.9306C17.2219 90.7123 16.5201 90.5635 15.8762 90.2673C15.2324 89.9712 14.6626 89.5353 14.2084 88.9912C13.2086 87.7961 12.8057 86.1642 13.1041 84.5139C14.4022 77.3126 18.4535 71.2633 24.8212 67.0166C30.4783 63.2468 37.6442 61.1719 45.0009 61.1719C52.3575 61.1719 59.5235 63.2483 65.1806 67.0166C71.5482 71.2617 75.5996 77.311 76.8977 84.5123C77.1961 86.1627 76.7931 87.7946 75.7934 88.9897C75.3393 89.534 74.7696 89.9702 74.1257 90.2666C73.4818 90.563 72.78 90.7122 72.0712 90.7031Z" fill="#D7D7D7"/>
</g>
<rect x="1" y="1" width="88" height="88" rx="44" stroke="#D7D7D7" stroke-width="2"/>
<defs>
<clipPath id="clip0_990_29">
<rect width="90" height="90" rx="45" fill="white"/>
</clipPath>
</defs>
</svg>
