<svg width="24" height="23" viewBox="0 0 24 23" fill="none" xmlns="http://www.w3.org/2000/svg">
<path d="M8.57654 0.770371C10.8899 0.247766 13.3105 0.486888 15.4769 1.45201C15.9813 1.67676 16.2084 2.2679 15.9838 2.77232C15.7589 3.2766 15.1678 3.50382 14.6634 3.27916C12.8908 2.48936 10.9099 2.29385 9.01696 2.72154C7.12408 3.14931 5.41944 4.17699 4.15857 5.65221C2.89774 7.12749 2.14758 8.97161 2.01989 10.9081C1.89232 12.8444 2.39437 14.7703 3.45056 16.3983C4.5068 18.0263 6.06092 19.2696 7.88122 19.9422C9.70158 20.6148 11.6911 20.6808 13.5521 20.1307C15.4131 19.5805 17.0463 18.4428 18.2084 16.8885C19.3703 15.3343 19.9991 13.4462 20.0004 11.5057V10.5858C20.0004 10.0336 20.4483 9.58601 21.0004 9.5858C21.5526 9.5858 22.0004 10.0335 22.0004 10.5858V11.5057L21.9916 11.9501C21.9009 14.1649 21.1422 16.3048 19.8109 18.0858C18.3907 19.9855 16.3941 21.3761 14.1195 22.0487C11.8449 22.7211 9.41281 22.6402 7.18786 21.8182C4.96321 20.9962 3.06376 19.4767 1.77282 17.4872C0.481855 15.4973 -0.132204 13.143 0.0238012 10.7762C0.179855 8.40961 1.09724 6.15644 2.63806 4.35338C4.17916 2.5503 6.26294 1.29318 8.57654 0.770371Z" fill="#868686"/>
<path d="M22.2933 2.79283C22.6836 2.40251 23.3168 2.40276 23.7074 2.79283C24.0978 3.18319 24.0976 3.81629 23.7074 4.20689L13.7074 14.2167C13.5199 14.4041 13.2654 14.5096 13.0004 14.5096C12.7353 14.5095 12.4808 14.4041 12.2933 14.2167L9.29333 11.2167C8.90314 10.8262 8.90313 10.1931 9.29333 9.8026C9.68378 9.41228 10.3169 9.41237 10.7074 9.8026L13.0004 12.0956L22.2933 2.79283Z" fill="#868686"/>
</svg>
