<svg width="36" height="36" viewBox="0 0 36 36" fill="none" xmlns="http://www.w3.org/2000/svg">
<path fill-rule="evenodd" clip-rule="evenodd" d="M13.5567 11.1234C14.6846 9.80208 16.3944 9.2093 18 9.2093C19.6763 9.2093 21.1482 9.84598 22.365 11.0451C23.6863 12.173 24.2791 13.8827 24.2791 15.4884C24.2791 17.1647 23.6424 18.6366 22.4433 19.8534C21.3154 21.1747 19.6056 21.7674 18 21.7674C16.3237 21.7674 14.8518 21.1308 13.635 19.9316C12.3137 18.8038 11.7209 17.094 11.7209 15.4884C11.7209 13.8121 12.3576 12.3401 13.5567 11.1234ZM18 11.7209C16.9446 11.7209 15.9957 12.1194 15.4485 12.776L15.412 12.8198L15.3717 12.8601C14.5867 13.6451 14.2326 14.5037 14.2326 15.4884C14.2326 16.5438 14.631 17.4927 15.2877 18.0399L15.3314 18.0764L15.3717 18.1167C16.1567 18.9017 17.0153 19.2558 18 19.2558C19.0554 19.2558 20.0044 18.8573 20.5515 18.2007L20.588 18.1569L20.6283 18.1167C21.4133 17.3317 21.7674 16.4731 21.7674 15.4884C21.7674 14.433 21.3689 13.484 20.7123 12.9368L20.6686 12.9004L20.6283 12.8601C19.8433 12.0751 18.9847 11.7209 18 11.7209Z" fill="#464A4D"/>
<path fill-rule="evenodd" clip-rule="evenodd" d="M12.3796 27.0884C11.6659 27.3916 11.0916 27.7941 10.7488 28.1941C9.87405 29.2146 9.3359 30.3254 9.2016 31.5341L6.70534 31.2567C6.90592 29.4514 7.70731 27.8831 8.84185 26.5595C9.50372 25.7873 10.4363 25.1852 11.3972 24.7768C12.3638 24.366 13.4517 24.1117 14.4837 24.1117H21.1814C23.3334 24.1117 25.3721 24.9009 26.8148 26.5498C28.1448 28.0698 28.7622 29.4785 28.9597 31.2567L26.4635 31.5341C26.3262 30.2983 25.9389 29.3629 24.9247 28.2037C24.0233 27.1736 22.7131 26.6233 21.1814 26.6233H14.4837C13.8413 26.6233 13.0873 26.7876 12.3796 27.0884Z" fill="#464A4D"/>
<path fill-rule="evenodd" clip-rule="evenodd" d="M18 2.51163C9.44601 2.51163 2.51163 9.44601 2.51163 18C2.51163 26.554 9.44601 33.4884 18 33.4884C26.554 33.4884 33.4884 26.554 33.4884 18C33.4884 9.44601 26.554 2.51163 18 2.51163ZM0 18C0 8.05887 8.05887 0 18 0C27.9411 0 36 8.05887 36 18C36 27.9411 27.9411 36 18 36C8.05887 36 0 27.9411 0 18Z" fill="#464A4D"/>
</svg>
