<svg width="74" height="73" viewBox="0 0 74 73" fill="none" xmlns="http://www.w3.org/2000/svg">
<circle cx="37.4346" cy="36.4893" r="36.4893" fill="#F0F0F0"/>
<path d="M32.0467 30.3719V38.8387C32.0467 39.734 31.8332 40.5315 31.4063 41.2311C30.9853 41.9308 30.3865 42.4792 29.6098 42.8765C28.839 43.2678 27.9496 43.4634 26.9417 43.4634C25.9219 43.4634 25.0236 43.2678 24.2469 42.8765C23.4702 42.4851 22.8713 41.9397 22.4504 41.24C22.0294 40.5345 21.8189 39.734 21.8189 38.8387V30.3719H23.7755V38.6786C23.7755 39.2597 23.903 39.7785 24.158 40.235C24.4188 40.6857 24.7864 41.0414 25.2608 41.3023C25.741 41.5572 26.3013 41.6847 26.9417 41.6847C27.5761 41.6847 28.1305 41.5572 28.6048 41.3023C29.0791 41.0414 29.4438 40.6857 29.6987 40.235C29.9596 39.7785 30.09 39.2597 30.09 38.6786V30.3719H32.0467ZM34.6792 30.3719H39.2683C40.2407 30.3719 41.0589 30.5409 41.723 30.8789C42.393 31.2168 42.894 31.6912 43.226 32.3019C43.564 32.9066 43.733 33.6092 43.733 34.4097C43.733 35.2872 43.5343 36.0402 43.1371 36.6687C42.7398 37.2972 42.1558 37.7567 41.385 38.0472L44.231 43.25H42.0076L39.3928 38.394H39.2683H36.6358V43.25H34.6792V30.3719ZM39.0727 36.7042C39.9976 36.7042 40.6765 36.5116 41.1093 36.1262C41.5421 35.7348 41.7586 35.1627 41.7586 34.4097C41.7586 33.6507 41.5392 33.0667 41.1004 32.6576C40.6676 32.2485 39.9917 32.044 39.0727 32.044H36.6358V36.7042H39.0727ZM45.903 30.3719H47.8596V41.5602H53.6761V43.25H45.903V30.3719Z" fill="#D0D0D0"/>
</svg>
