<svg width="74" height="73" viewBox="0 0 74 73" fill="none" xmlns="http://www.w3.org/2000/svg">
<path d="M73.9633 36.4909C73.9633 56.6443 57.6257 72.9818 37.4724 72.9818C17.319 72.9818 0.981445 56.6443 0.981445 36.4909C0.981445 16.3375 17.319 0 37.4724 0C57.6257 0 73.9633 16.3375 73.9633 36.4909Z" fill="#FEE500"/>
<path d="M37.578 17.6111C26.2249 17.6111 17.0692 24.9356 17.0692 33.8277C17.0692 39.5994 20.8779 44.6534 26.5911 47.5392L24.6574 54.7613C24.621 54.8696 24.6154 54.9857 24.6412 55.097C24.6671 55.2082 24.7234 55.3101 24.8039 55.3912C24.9213 55.4947 25.0723 55.5519 25.2287 55.5523C25.3585 55.5419 25.4816 55.4906 25.5803 55.4058L33.901 49.7953C35.1293 49.9648 36.3674 50.0528 37.6073 50.0588C48.9457 50.0588 58.1161 42.7343 58.1161 33.8277C58.1161 24.921 48.9164 17.6111 37.578 17.6111Z" fill="white"/>
<path d="M24.2461 31.2638H22.0048C21.727 31.2719 21.4527 31.2007 21.2138 31.0587C21.1077 30.9923 21.0165 30.9046 20.9459 30.8012C20.8754 30.6979 20.8269 30.581 20.8036 30.4581C20.7965 30.3801 20.7965 30.3018 20.8036 30.2238C20.7966 30.0779 20.825 29.9324 20.8862 29.7998C20.9474 29.6672 21.0396 29.5514 21.1552 29.462C21.4106 29.2771 21.7188 29.1793 22.0341 29.1836H28.7874C29.0674 29.1737 29.3436 29.2505 29.5784 29.4034C29.687 29.4669 29.7801 29.5538 29.851 29.6576C29.922 29.7615 29.969 29.8798 29.9886 30.004C29.9958 30.0771 29.9958 30.1507 29.9886 30.2238C29.9955 30.3718 29.9673 30.5193 29.9061 30.6542C29.845 30.7892 29.7528 30.9076 29.637 31.0001C29.3879 31.1848 29.0826 31.278 28.7727 31.2638H26.6047V38.9693C26.6135 39.1335 26.5881 39.2976 26.5301 39.4514C26.4721 39.6052 26.3827 39.7454 26.2677 39.8629C26.1574 39.9752 26.0249 40.0632 25.8786 40.1213C25.7322 40.1793 25.5754 40.206 25.4181 40.1998C25.143 40.2076 24.8737 40.1197 24.6563 39.9508C24.4494 39.7859 24.309 39.5517 24.2608 39.2915C24.2463 39.1846 24.2463 39.0762 24.2608 38.9693L24.2461 31.2638Z" fill="#FEE500"/>
<path d="M30.6355 29.7552C30.6999 29.5142 30.8513 29.3054 31.0603 29.1692C31.2831 29.043 31.537 28.982 31.7928 28.9934H32.3495C32.6209 28.9837 32.8897 29.0497 33.1259 29.1839C33.3761 29.3522 33.5539 29.6084 33.6239 29.9017L36.5538 38.1785C36.6297 38.3944 36.6933 38.6146 36.7442 38.8378C36.7492 38.9305 36.7492 39.0233 36.7442 39.1161C36.7491 39.2588 36.7229 39.401 36.6672 39.5325C36.6115 39.6641 36.5278 39.782 36.4219 39.8778C36.3193 39.983 36.1961 40.0659 36.06 40.1214C35.9239 40.1768 35.7778 40.2036 35.6309 40.2001C35.4049 40.2225 35.178 40.1684 34.9866 40.0461C34.7953 39.9239 34.6507 39.7407 34.5761 39.5263L33.9609 37.7245H30.1081L29.4929 39.5263C29.4201 39.745 29.2737 39.9316 29.0787 40.0545C28.8837 40.1774 28.6522 40.2288 28.4235 40.2001C28.1758 40.2066 27.9331 40.1291 27.735 39.9803C27.5419 39.8268 27.4117 39.6081 27.3687 39.3652C27.361 39.2823 27.361 39.1989 27.3687 39.1161C27.3436 38.9706 27.3436 38.8221 27.3687 38.6767C27.3687 38.5155 27.4713 38.3396 27.5299 38.1785L30.6355 29.7552ZM32.1004 31.6744L30.7087 36.0691H33.4774L32.1004 31.6744Z" fill="#FEE500"/>
<path d="M37.0797 30.224C37.0648 29.8952 37.1807 29.574 37.402 29.3304C37.5145 29.2169 37.6495 29.1282 37.7984 29.0702C37.9473 29.0122 38.1066 28.9859 38.2663 28.9933C38.5407 28.9901 38.8085 29.0777 39.028 29.2424C39.2315 29.4142 39.3666 29.6533 39.4089 29.9162C39.4233 30.0183 39.4233 30.1219 39.4089 30.224V37.9294H43.4374C43.7166 37.9258 43.9911 38.0019 44.2285 38.149C44.3351 38.2148 44.4268 38.3023 44.4974 38.4058C44.5681 38.5093 44.6162 38.6264 44.6386 38.7497C44.6386 38.7497 44.6386 38.8962 44.6386 38.9695C44.6456 39.1154 44.6173 39.2607 44.5561 39.3933C44.4949 39.5259 44.4026 39.6419 44.2871 39.7313C44.0317 39.9162 43.7234 40.0137 43.4081 40.0095H38.4567C38.1413 40.0298 37.8279 39.9477 37.5631 39.7752C37.3263 39.5981 37.1684 39.3351 37.1236 39.0428C37.1129 38.8818 37.1129 38.7202 37.1236 38.5592L37.0797 30.224Z" fill="#FEE500"/>
<path d="M44.903 30.2238C44.8942 29.896 45.0093 29.577 45.2253 29.3302C45.4448 29.1307 45.7264 29.0129 46.0226 28.9969C46.3189 28.9809 46.6115 29.0676 46.8513 29.2423C47.0592 29.4126 47.1995 29.6515 47.2468 29.9161C47.2541 30.0185 47.2541 30.1214 47.2468 30.2238V33.8128L50.9531 29.5352C51.0959 29.3892 51.2475 29.2524 51.4072 29.1251C51.5576 29.0355 51.7302 28.9897 51.9053 28.9932C52.1613 28.9918 52.4117 29.0684 52.6231 29.2129C52.7227 29.28 52.8077 29.3665 52.8732 29.4672C52.9386 29.5679 52.9831 29.6807 53.0039 29.7989C53.0099 29.8279 53.0099 29.8579 53.0039 29.8869C52.9968 29.9207 52.9968 29.9556 53.0039 29.9894C53.0034 30.1435 52.9631 30.295 52.8867 30.4289C52.809 30.5707 52.7157 30.7033 52.6084 30.8243L50.1767 33.4906L53.1065 38.0317V38.1782C53.2586 38.3881 53.3772 38.6205 53.4581 38.8669V38.94C53.475 39.1097 53.4505 39.2811 53.3868 39.4393C53.323 39.5975 53.2218 39.7377 53.0918 39.8482C52.8475 40.0329 52.5485 40.131 52.2422 40.1267C52.0387 40.135 51.8365 40.0894 51.6562 39.9947C51.4611 39.8638 51.3003 39.688 51.1875 39.482L48.4627 35.0873L47.1589 36.4497V38.896C47.1677 39.2238 47.0526 39.5428 46.8367 39.7896C46.7209 39.9027 46.5832 39.9911 46.432 40.049C46.2809 40.107 46.1195 40.1334 45.9577 40.1267C45.6874 40.1323 45.4235 40.0443 45.2106 39.8776C45.0037 39.7126 44.8632 39.4786 44.8151 39.2184C44.8006 39.1115 44.8006 39.0029 44.8151 38.896L44.903 30.2238Z" fill="#FEE500"/>
</svg>
